<?xml version="1.0" encoding="utf-8"?>
<!-- Generator: Adobe Illustrator 25.1.0, SVG Export Plug-In . SVG Version: 6.00 Build 0)  -->
<svg version="1.1" id="Layer_1" xmlns="http://www.w3.org/2000/svg" xmlns:xlink="http://www.w3.org/1999/xlink" x="0px" y="0px"
	 viewBox="0 0 1024 1024" style="enable-background:new 0 0 1024 1024;" xml:space="preserve">
<style type="text/css">
	.st0{fill:#F15A24;}
	.st1{fill:#1B1464;}
</style>
<circle class="st0" cx="516.4" cy="530.1" r="450"/>
<g>
	<path class="st1" d="M524.5,406c10.1-14.6,19.6-28.9,28.4-42.7l-36.5,35l-36.5-35c8.8,13.8,18.3,28.1,28.4,42.7L204.6,696.9
		c15.2,0,30.4,0,45.6,0c48.1-37.1,102.6-85,158.5-145.9c41.9-45.7,77.6-91,107.6-133.4c30,42.4,65.7,87.7,107.6,133.4
		c55.9,60.9,110.5,108.8,158.5,145.9c15.2,0,30.4,0,45.6,0L524.5,406z"/>
	<g>
		<rect x="539.7" y="530.1" class="st1" width="45.6" height="52.8"/>
		<rect x="465.2" y="530.1" class="st1" width="45.6" height="52.8"/>
		<rect x="465.2" y="616.2" class="st1" width="45.6" height="52.8"/>
		<rect x="539.7" y="616.2" class="st1" width="45.6" height="52.8"/>
	</g>
</g>
<path class="st1" d="M516.4,80.1c-248.5,0-450,201.5-450,450s201.5,450,450,450s450-201.5,450-450S764.9,80.1,516.4,80.1z
	 M521.1,953.3C285,953.3,93.6,761.9,93.6,525.8S285,98.3,521.1,98.3s427.5,191.4,427.5,427.5S757.2,953.3,521.1,953.3z"/>
</svg>
